<?xml version="1.0" standalone="no"?><!DOCTYPE svg PUBLIC "-//W3C//DTD SVG 1.1//EN" "http://www.w3.org/Graphics/SVG/1.1/DTD/svg11.dtd"><svg t="1555654722610" class="icon" style="" viewBox="0 0 1024 1024" version="1.1" xmlns="http://www.w3.org/2000/svg" p-id="1638" xmlns:xlink="http://www.w3.org/1999/xlink" width="200" height="200"><defs><style type="text/css"></style></defs><path d="M559.1 299.5h-94.2v165.4H299.5v94.2h165.4v165.4h94.2V559.1h165.4v-94.2H559.1V299.5z m0 0" p-id="1639"></path><path d="M857.4 723.7c-4 84-73.5 151.2-158.3 151.2H324.8c-84.8 0-154.3-67.1-158.3-151.2h-0.2V300.3h0.2c4-84.1 73.5-151.3 158.3-151.3H640l-68.3 57.7H324.9C269.3 206.9 224 252.3 224 308v408c0 55.7 45.3 101.1 100.9 101.1h374.2c55.6 0 100.9-45.4 100.9-101.1V430.5l57.6-56.8v350h-0.2zM834.9 284" p-id="1640"></path><path d="M166.6 300.3c4-84.1 73.5-151.2 158.3-151.2h374.4c84.8 0 154.3 67.1 158.3 151.2h0.2v423.3h-0.2c-4 84.1-73.5 151.2-158.3 151.2H384l68.3-57.7h246.8c55.6 0 100.9-45.4 100.9-101.1V308c0-55.8-45.3-101.1-100.9-101.1H324.8C269.3 206.9 224 252.3 224 308v285.5l-57.6 56.8v-350h0.2zM189.1 740" p-id="1641"></path></svg>