<svg class="icon" style="" viewBox="0 0 1024 1024" version="1.1" xmlns="http://www.w3.org/2000/svg"
     width="200" height="200">
    <defs>
        <style type="text/css"></style>
    </defs>
    <path d="M867 302H157a45.13 45.13 0 0 0-45 45 45.13 45.13 0 0 0 45 45h65v428.34C222 876 247.37 902 303.66 902h416.68c59.53 0 81.66-29.5 81.66-81.66V392h65a45.13 45.13 0 0 0 45-45 45.13 45.13 0 0 0-45-45zM712 812H312V392h400z"
          ></path>
    <path d="M472 497v210a45.13 45.13 0 0 1-45 45 45.13 45.13 0 0 1-45-45V497a45.13 45.13 0 0 1 45-45 45.13 45.13 0 0 1 45 45z m120-45a45.13 45.13 0 0 0-45 45v210a45.13 45.13 0 0 0 45 45 45.13 45.13 0 0 0 45-45V497a45.13 45.13 0 0 0-45-45zM362 167a45.13 45.13 0 0 0 45 45h210a45.13 45.13 0 0 0 45-45 45.13 45.13 0 0 0-45-45H407a45.13 45.13 0 0 0-45 45z"
          ></path>
</svg>
